<?xml version="1.0" encoding="utf-8"?>
<!-- Generator: Adobe Illustrator 17.0.0, SVG Export Plug-In . SVG Version: 6.00 Build 0)  -->
<!DOCTYPE svg PUBLIC "-//W3C//DTD SVG 1.1//EN" "http://www.w3.org/Graphics/SVG/1.1/DTD/svg11.dtd">
<svg version="1.1" id="Livello_1" xmlns="http://www.w3.org/2000/svg" xmlns:xlink="http://www.w3.org/1999/xlink" x="0px" y="0px"
	 width="393px" height="158px" viewBox="0 0 393 158" enable-background="new 0 0 393 158" xml:space="preserve">
<g>
	<g>
		<path fill="#DA8F57" d="M66.847,141.106c-32.479,0-58.906-26.427-58.906-58.907c0-32.481,26.427-58.908,58.906-58.908
			c32.482,0,58.909,26.427,58.909,58.908C125.756,114.679,99.329,141.106,66.847,141.106 M66.847,33.333
			c-26.944,0-48.864,21.922-48.864,48.866s21.92,48.865,48.864,48.865c26.948,0,48.867-21.921,48.867-48.865
			C115.714,55.255,93.795,33.333,66.847,33.333"/>
	</g>
	<g>
		<polygon fill="#DA8F57" points="340.095,141.23 252.209,141.23 252.209,23.462 369.977,23.462 369.977,136.209 359.935,136.209 
			359.935,33.504 262.251,33.504 262.251,131.188 340.095,131.188 		"/>
	</g>
	<g>
		<path fill="#A97144" d="M376.977,152.823c-1.285,0-2.57-0.49-3.55-1.471l-28.608-28.609c-1.961-1.961-1.961-5.139,0-7.101
			c1.961-1.961,5.139-1.961,7.101,0l28.607,28.61c1.961,1.961,1.961,5.139,0,7.1C379.547,152.333,378.262,152.823,376.977,152.823"
			/>
	</g>
	<g>
		<path fill="#A97144" d="M170.133,33.504h-34.159c-2.773,0-5.021-2.248-5.021-5.021c0-2.772,2.248-5.021,5.021-5.021h34.159
			c2.773,0,5.021,2.249,5.021,5.021C175.154,31.256,172.906,33.504,170.133,33.504"/>
	</g>
	<g>
		<path fill="#DA8F57" d="M186.569,140.479h-10.042V45.057c0-11.907,9.687-21.595,21.595-21.595h29.004v10.042h-29.004
			c-6.37,0-11.553,5.181-11.553,11.553L186.569,140.479L186.569,140.479z"/>
	</g>
</g>
</svg>
